<svg xmlns="http://www.w3.org/2000/svg" viewBox="0 0 300 75.1"><defs><style>.cls-1{isolation:isolate;}.cls-2{fill:#fff;}.cls-3,.cls-4,.cls-5,.cls-6,.cls-7,.cls-8{fill:none;}.cls-3{stroke:#2fb6df;}.cls-3,.cls-4,.cls-5,.cls-6,.cls-7{stroke-linecap:round;stroke-miterlimit:10;stroke-width:3.59px;mix-blend-mode:multiply;}.cls-4{stroke:#d6aacd;}.cls-5{stroke:#b5b5b6;}.cls-6{stroke:#ea6a3f;}.cls-7{stroke:#fbd026;}</style></defs><g class="cls-1"><g id="Layer_1" data-name="Layer 1"><g id="Layer_1-2" data-name="Layer 1"><circle class="cls-2" cx="37.5" cy="37.5" r="33.8"/><line class="cls-3" x1="48.3" y1="9.5" x2="56.6" y2="59.2"/><line class="cls-3" x1="27.7" y1="20.5" x2="56.6" y2="59.2"/><line class="cls-4" x1="8.6" y1="40" x2="27.7" y2="20.5"/><line class="cls-5" x1="8.6" y1="40" x2="56.6" y2="59.2"/><line class="cls-3" x1="56.6" y1="59.2" x2="61.9" y2="44.4"/><line class="cls-6" x1="27.7" y1="20.5" x2="61.9" y2="44.4"/><line class="cls-5" x1="8.6" y1="40" x2="61.9" y2="44.4"/><line class="cls-7" x1="48.3" y1="9.5" x2="61.9" y2="44.4"/><circle class="cls-8" cx="37.5" cy="37.5" r="37.5"/></g><path class="cls-2" d="M102.1,45.2a1.71,1.71,0,1,1-3.3.9s-.4-1.5-1-3.8H91.7c-.6,2.2-1,3.8-1,3.8a1.71,1.71,0,0,1-3.3-.9L93,24.3a1.76,1.76,0,0,1,3.4,0Zm-5.4-6.3c-.7-2.5-1.4-5.3-2.1-7.6-.6,2.3-1.4,5.1-2.1,7.6Z"/><path class="cls-2" d="M104,42.1V34.9a5.25,5.25,0,0,1,3.2-4.8,5.07,5.07,0,0,1,5.7,1.2,1.63,1.63,0,1,1-2.3,2.3,2,2,0,0,0-2.2-.4,1.83,1.83,0,0,0-1.2,1.8v7.2a2,2,0,0,0,1.2,1.8,2.22,2.22,0,0,0,2.2-.4,1.63,1.63,0,0,1,2.3,2.3,5.21,5.21,0,0,1-5.7,1.1A5.33,5.33,0,0,1,104,42.1Z"/><path class="cls-2" d="M115.8,41.9V35a5.16,5.16,0,0,1,5.2-5.2h3.6a1.58,1.58,0,0,1,1.6,1.6V52.9a1.6,1.6,0,0,1-3.2,0V47.2h-2A5.31,5.31,0,0,1,115.8,41.9ZM119,35v6.9a2,2,0,0,0,2,2h2V33h-2A2,2,0,0,0,119,35Z"/><path class="cls-2" d="M129.9,41.9V31.3a1.6,1.6,0,1,1,3.2,0V42a2,2,0,0,0,2,2h2V31.3a1.6,1.6,0,0,1,3.2,0V45.6a1.58,1.58,0,0,1-1.6,1.6h-3.6A5.31,5.31,0,0,1,129.9,41.9Z"/><path class="cls-2" d="M143.9,25.9a2,2,0,1,1,2,2A2,2,0,0,1,143.9,25.9Zm2,21.4a1.58,1.58,0,0,1-1.6-1.6V31.3a1.6,1.6,0,1,1,3.2,0V45.7A1.58,1.58,0,0,1,145.9,47.3Z"/><path class="cls-2" d="M157,42.2a1.71,1.71,0,0,0-.7-1.3l-3.4-2.3a5.39,5.39,0,0,1-2.1-3.7,4.8,4.8,0,0,1,1.6-3.9,4.94,4.94,0,0,1,4-1.2,5,5,0,0,1,3.5,2.4,1.61,1.61,0,0,1-2.8,1.6,2,2,0,0,0-1.2-.8,1.48,1.48,0,0,0-1.3.4,1.3,1.3,0,0,0-.5,1.3,1.85,1.85,0,0,0,.7,1.2l3.3,2.3a4.94,4.94,0,0,1,2.1,3.8,5,5,0,0,1-1.6,4,4.73,4.73,0,0,1-4.1,1.2,5,5,0,0,1-3.6-2.4,1.61,1.61,0,0,1,2.8-1.6,1.76,1.76,0,0,0,1.3.9,1.79,1.79,0,0,0,1.4-.4A2.4,2.4,0,0,0,157,42.2Z"/><path class="cls-2" d="M163,25.9a2,2,0,1,1,2,2A2,2,0,0,1,163,25.9Zm2,21.4a1.58,1.58,0,0,1-1.6-1.6V31.3a1.6,1.6,0,0,1,3.2,0V45.7A1.58,1.58,0,0,1,165,47.3Z"/><path class="cls-2" d="M168.9,31.4a1.58,1.58,0,0,1,1.6-1.6h1.3V24.1a1.6,1.6,0,1,1,3.2,0v5.7h2a1.6,1.6,0,0,1,0,3.2h-2v9a2,2,0,0,0,2,2,1.6,1.6,0,0,1,0,3.2,5.16,5.16,0,0,1-5.2-5.2V33h-1.3A1.64,1.64,0,0,1,168.9,31.4Z"/><path class="cls-2" d="M180.8,25.9a2,2,0,1,1,2,2A2,2,0,0,1,180.8,25.9Zm2,21.4a1.58,1.58,0,0,1-1.6-1.6V31.3a1.6,1.6,0,1,1,3.2,0V45.7A1.58,1.58,0,0,1,182.8,47.3Z"/><path class="cls-2" d="M188,42.1V34.9a5.2,5.2,0,0,1,10.4,0v7.2a5.2,5.2,0,0,1-10.4,0Zm3.2-7.2v7.2a2,2,0,0,0,4,0V34.9a2,2,0,0,0-4,0Z"/><path class="cls-2" d="M201.9,45.7V31.4a1.58,1.58,0,0,1,1.6-1.6h3.6a5.16,5.16,0,0,1,5.2,5.2V45.7a1.64,1.64,0,0,1-1.6,1.6,1.58,1.58,0,0,1-1.6-1.6V35a2,2,0,0,0-2-2h-2V45.6a1.64,1.64,0,0,1-1.6,1.6A1.44,1.44,0,0,1,201.9,45.7Z"/><path class="cls-2" d="M233.1,34.9a6,6,0,0,1,1.8,4.3v2a6,6,0,0,1-6,6h-4.3a1.69,1.69,0,0,1-1.7-1.7V24.9a1.75,1.75,0,0,1,1.7-1.7h4.3a6,6,0,0,1,6,6v1.3A6.28,6.28,0,0,1,233.1,34.9Zm-4.2-1.8a2.65,2.65,0,0,0,2.6-2.6V29.2a2.65,2.65,0,0,0-2.6-2.6h-2.6v6.5Zm0,3.5h-2.6v7.2h2.6a2.65,2.65,0,0,0,2.6-2.6v-2A2.65,2.65,0,0,0,228.9,36.6Z"/><path class="cls-2" d="M237.9,42.1V34.9a5.2,5.2,0,0,1,10.4,0v7.2a5.16,5.16,0,0,1-5.2,5.2A5.23,5.23,0,0,1,237.9,42.1Zm3.3-7.2v7.2a2,2,0,1,0,4,0V34.9a2,2,0,0,0-2-2A1.94,1.94,0,0,0,241.2,34.9Z"/><path class="cls-2" d="M257.7,36.7V34.8a2,2,0,0,0-1.2-1.8,2,2,0,0,0-2.1.4,1.63,1.63,0,0,1-2.3-2.3,5.09,5.09,0,0,1,5.6-1.1,5.25,5.25,0,0,1,3.2,4.8V45.5a1.58,1.58,0,0,1-1.6,1.6h-3.6a5.2,5.2,0,1,1,0-10.4Zm-4,5.2a2,2,0,0,0,2,2h2v-4h-2A2,2,0,0,0,253.7,41.9Z"/><path class="cls-2" d="M264.6,45.7V31.4a1.58,1.58,0,0,1,1.6-1.6h3.6a5.94,5.94,0,0,1,2.6.7,1.61,1.61,0,1,1-1.6,2.8,2.93,2.93,0,0,0-1-.3h-2V45.6a1.58,1.58,0,0,1-1.6,1.6A1.44,1.44,0,0,1,264.6,45.7Z"/><path class="cls-2" d="M274.9,41.9V35a5.16,5.16,0,0,1,5.2-5.2h2V24.1a1.6,1.6,0,0,1,3.2,0V45.6a1.58,1.58,0,0,1-1.6,1.6h-3.6A5.31,5.31,0,0,1,274.9,41.9Zm3.2-6.9v6.9a2,2,0,0,0,2,2h2V33h-2A2,2,0,0,0,278.1,35Z"/></g></g></svg>