<?xml version="1.0" encoding="utf-8"?>
<!-- Generator: Adobe Illustrator 25.2.1, SVG Export Plug-In . SVG Version: 6.00 Build 0)  -->
<svg version="1.1" id="Layer_1" xmlns="http://www.w3.org/2000/svg" xmlns:xlink="http://www.w3.org/1999/xlink" x="0px" y="0px"
	 viewBox="0 0 300 75.1" style="enable-background:new 0 0 300 75.1;" xml:space="preserve">
<style type="text/css">
	.st0{fill:#FFFFFF;}
	.st1{fill:none;stroke:#2FB6DF;stroke-width:3.59;stroke-linecap:round;stroke-miterlimit:10;}
	.st2{fill:none;stroke:#D6AACD;stroke-width:3.59;stroke-linecap:round;stroke-miterlimit:10;}
	.st3{fill:none;stroke:#B5B5B6;stroke-width:3.59;stroke-linecap:round;stroke-miterlimit:10;}
	.st4{fill:none;stroke:#EA6A3F;stroke-width:3.59;stroke-linecap:round;stroke-miterlimit:10;}
	.st5{fill:none;stroke:#FBD026;stroke-width:3.59;stroke-linecap:round;stroke-miterlimit:10;}
	.st6{fill:#2FB6DF;}
	.st7{fill:none;stroke:#D15527;stroke-width:3.59;stroke-linecap:round;stroke-miterlimit:10;}
	.st8{fill:none;}
</style>
<g>
	<g id="Layer_1_1_">
		<circle class="st0" cx="37.5" cy="37.5" r="33.8"/>
		<line class="st1" x1="48.3" y1="9.5" x2="56.6" y2="59.2"/>
		<line class="st1" x1="27.7" y1="20.5" x2="56.6" y2="59.2"/>
		<line class="st2" x1="8.6" y1="40" x2="27.7" y2="20.5"/>
		<line class="st3" x1="8.6" y1="40" x2="56.6" y2="59.2"/>
		<line class="st1" x1="56.6" y1="59.2" x2="61.9" y2="44.4"/>
		<line class="st4" x1="27.7" y1="20.5" x2="61.9" y2="44.4"/>
		<line class="st3" x1="8.6" y1="40" x2="61.9" y2="44.4"/>
		<line class="st5" x1="48.3" y1="9.5" x2="61.9" y2="44.4"/>
		<path class="st6" d="M40.5,28.5"/>
		<path class="st7" d="M41.9,29.7"/>
		<path class="st6" d="M28.1,30.2"/>
		<path class="st6" d="M28.1,30.2"/>
		<circle class="st8" cx="37.5" cy="37.5" r="37.5"/>
	</g>
</g>
<g>
	<g>
		<path class="st0" d="M102.1,45.2c0.3,0.9-0.3,1.9-1.2,2.1c-0.9,0.3-1.9-0.3-2.1-1.2c0,0-0.4-1.5-1-3.8h-6.1c-0.6,2.2-1,3.8-1,3.8
			c-0.3,0.9-1.2,1.4-2.1,1.2c-0.9-0.3-1.4-1.2-1.2-2.1L93,24.3c0.2-0.8,0.9-1.3,1.7-1.3s1.5,0.5,1.7,1.3L102.1,45.2z M96.7,38.9
			c-0.7-2.5-1.4-5.3-2.1-7.6c-0.6,2.3-1.4,5.1-2.1,7.6H96.7z"/>
		<path class="st0" d="M104,42.1v-7.2c0-2.1,1.3-4,3.2-4.8c2-0.8,4.2-0.4,5.7,1.2c0.6,0.6,0.6,1.7,0,2.3c-0.6,0.6-1.7,0.6-2.3,0
			c-0.6-0.6-1.4-0.7-2.2-0.4c-0.8,0.3-1.2,1-1.2,1.8v7.2c0,0.8,0.5,1.5,1.2,1.8c0.7,0.3,1.6,0.1,2.2-0.4c0.6-0.6,1.7-0.6,2.3,0
			c0.6,0.6,0.6,1.7,0,2.3c-1.5,1.5-3.7,1.9-5.7,1.1C105.2,46.1,104,44.2,104,42.1z"/>
		<path class="st0" d="M115.8,41.9V35c0-2.9,2.3-5.2,5.2-5.2h3.6c0.9,0,1.6,0.7,1.6,1.6v21.5c0,0.9-0.7,1.6-1.6,1.6
			s-1.6-0.7-1.6-1.6v-5.7h-2C118.1,47.1,115.8,44.8,115.8,41.9z M119,35v6.9c0,1.1,0.9,2,2,2h2V33h-2C119.9,33,119,33.9,119,35z"/>
		<path class="st0" d="M129.9,41.9V31.3c0-0.9,0.7-1.6,1.6-1.6s1.6,0.7,1.6,1.6v10.7c0,1.1,0.9,2,2,2h2V31.3c0-0.9,0.7-1.6,1.6-1.6
			s1.6,0.7,1.6,1.6v14.3c0,0.9-0.7,1.6-1.6,1.6h-3.6C132.2,47.1,129.9,44.8,129.9,41.9z"/>
		<path class="st0" d="M143.9,25.9c0-1.1,0.9-2,2-2c1.1,0,2,0.9,2,2c0,1.1-0.9,2-2,2C144.8,27.9,143.9,27,143.9,25.9z M145.9,47.3
			c-0.9,0-1.6-0.7-1.6-1.6V31.3c0-0.9,0.7-1.6,1.6-1.6s1.6,0.7,1.6,1.6v14.4C147.5,46.6,146.8,47.3,145.9,47.3z"/>
		<path class="st0" d="M157,42.2c0-0.5-0.3-1-0.7-1.3l-3.4-2.3c-1.2-0.9-1.9-2.2-2.1-3.7c-0.1-1.5,0.5-2.9,1.6-3.9
			c1.1-1,2.6-1.4,4-1.2c1.4,0.2,2.7,1.1,3.5,2.4c0.4,0.8,0.2,1.8-0.6,2.2c-0.8,0.4-1.8,0.2-2.2-0.6c-0.3-0.4-0.7-0.7-1.2-0.8
			c-0.5-0.1-1,0.1-1.3,0.4c-0.4,0.3-0.6,0.8-0.5,1.3s0.3,0.9,0.7,1.2l3.3,2.3c1.3,0.9,2,2.3,2.1,3.8c0.1,1.5-0.5,3-1.6,4
			c-1.1,1-2.6,1.5-4.1,1.2c-1.5-0.2-2.8-1.1-3.6-2.4c-0.4-0.8-0.2-1.8,0.6-2.2c0.8-0.4,1.8-0.2,2.2,0.6c0.3,0.5,0.7,0.8,1.3,0.9
			c0.5,0.1,1-0.1,1.4-0.4C156.8,43.2,157,42.7,157,42.2z"/>
		<path class="st0" d="M163,25.9c0-1.1,0.9-2,2-2c1.1,0,2,0.9,2,2c0,1.1-0.9,2-2,2C163.9,27.9,163,27,163,25.9z M165,47.3
			c-0.9,0-1.6-0.7-1.6-1.6V31.3c0-0.9,0.7-1.6,1.6-1.6c0.9,0,1.6,0.7,1.6,1.6v14.4C166.6,46.6,165.9,47.3,165,47.3z"/>
		<path class="st0" d="M168.9,31.4c0-0.9,0.7-1.6,1.6-1.6h1.3v-5.7c0-0.9,0.7-1.6,1.6-1.6c0.9,0,1.6,0.7,1.6,1.6v5.7h2
			c0.9,0,1.6,0.7,1.6,1.6S177.9,33,177,33h-2v9c0,1.1,0.9,2,2,2c0.9,0,1.6,0.7,1.6,1.6c0,0.9-0.7,1.6-1.6,1.6
			c-2.9,0-5.2-2.3-5.2-5.2v-9h-1.3C169.7,33,168.9,32.3,168.9,31.4z"/>
		<path class="st0" d="M180.8,25.9c0-1.1,0.9-2,2-2c1.1,0,2,0.9,2,2c0,1.1-0.9,2-2,2C181.7,27.9,180.8,27,180.8,25.9z M182.8,47.3
			c-0.9,0-1.6-0.7-1.6-1.6V31.3c0-0.9,0.7-1.6,1.6-1.6c0.9,0,1.6,0.7,1.6,1.6v14.4C184.4,46.6,183.7,47.3,182.8,47.3z"/>
		<path class="st0" d="M188,42.1v-7.2c0-2.9,2.3-5.2,5.2-5.2c2.9,0,5.2,2.3,5.2,5.2v7.2c0,2.9-2.3,5.2-5.2,5.2
			C190.3,47.3,188,45,188,42.1z M191.2,34.9v7.2c0,1.1,0.9,2,2,2c1.1,0,2-0.9,2-2v-7.2c0-1.1-0.9-2-2-2
			C192.1,32.9,191.2,33.8,191.2,34.9z"/>
		<path class="st0" d="M201.9,45.7V31.4c0-0.9,0.7-1.6,1.6-1.6h3.6c2.9,0,5.2,2.3,5.2,5.2v10.7c0,0.9-0.8,1.6-1.6,1.6
			c-0.9,0-1.6-0.7-1.6-1.6V35c0-1.1-0.9-2-2-2h-2v12.6c0,0.9-0.8,1.6-1.6,1.6C202.6,47.3,201.9,46.6,201.9,45.7z"/>
		<path class="st0" d="M233.1,34.9c1.1,1.1,1.8,2.6,1.8,4.3v2c0,3.3-2.7,6-6,6h-4.3c-1,0-1.7-0.8-1.7-1.7V24.9
			c0-0.9,0.8-1.7,1.7-1.7h4.3c3.3,0,6,2.7,6,6v1.3C234.9,32.2,234.2,33.8,233.1,34.9z M228.9,33.1c1.4,0,2.6-1.2,2.6-2.6v-1.3
			c0-1.4-1.2-2.6-2.6-2.6h-2.6v6.5H228.9z M228.9,36.6h-2.6v7.2h2.6c1.4,0,2.6-1.2,2.6-2.6v-2C231.5,37.8,230.3,36.6,228.9,36.6z"/>
		<path class="st0" d="M237.9,42.1v-7.2c0-2.9,2.3-5.2,5.2-5.2c2.9,0,5.2,2.3,5.2,5.2v7.2c0,2.9-2.3,5.2-5.2,5.2
			C240.3,47.3,237.9,45,237.9,42.1z M241.2,34.9v7.2c0,1.1,0.9,2,2,2c1.1,0,2-0.9,2-2v-7.2c0-1.1-0.9-2-2-2
			C242,32.9,241.2,33.8,241.2,34.9z"/>
		<path class="st0" d="M257.7,36.7v-1.9c0-0.8-0.5-1.5-1.2-1.8c-0.7-0.3-1.5-0.1-2.1,0.4c-0.6,0.6-1.7,0.6-2.3,0
			c-0.6-0.6-0.6-1.7,0-2.3c1.5-1.5,3.7-1.9,5.6-1.1c1.9,0.8,3.2,2.7,3.2,4.8v10.7c0,0.9-0.7,1.6-1.6,1.6h-3.6
			c-2.9,0-5.2-2.3-5.2-5.2c0-2.9,2.3-5.2,5.2-5.2H257.7z M253.7,41.9c0,1.1,0.9,2,2,2h2v-4h-2C254.6,39.9,253.7,40.8,253.7,41.9z"/>
		<path class="st0" d="M264.6,45.7V31.4c0-0.9,0.7-1.6,1.6-1.6h3.6c0.9,0,1.8,0.3,2.6,0.7c0.8,0.5,1,1.4,0.6,2.2
			c-0.5,0.8-1.4,1-2.2,0.6c-0.3-0.1-0.6-0.3-1-0.3h-2v12.6c0,0.9-0.7,1.6-1.6,1.6C265.3,47.3,264.6,46.6,264.6,45.7z"/>
		<path class="st0" d="M274.9,41.9V35c0-2.9,2.3-5.2,5.2-5.2h2v-5.7c0-0.9,0.7-1.6,1.6-1.6c0.9,0,1.6,0.7,1.6,1.6v21.5
			c0,0.9-0.7,1.6-1.6,1.6h-3.6C277.2,47.1,274.9,44.8,274.9,41.9z M278.1,35v6.9c0,1.1,0.9,2,2,2h2V33h-2
			C279,33,278.1,33.9,278.1,35z"/>
	</g>
</g>
</svg>
